<svg width="79" height="73" viewBox="0 0 79 73" fill="none" xmlns="http://www.w3.org/2000/svg">
<path fill-rule="evenodd" clip-rule="evenodd" d="M63.4527 16.6126C60.9013 16.6126 58.8297 18.6842 58.8297 21.2356C58.8297 23.7876 60.9013 25.8592 63.4527 25.8592C66.0047 25.8592 68.0763 23.7876 68.0763 21.2356C68.0763 18.6842 66.0047 16.6126 63.4527 16.6126ZM63.4527 18.4464C64.9925 18.4464 66.2425 19.6964 66.2425 21.2356C66.2425 22.7754 64.9925 24.0254 63.4527 24.0254C61.9129 24.0254 60.6635 22.7754 60.6635 21.2356C60.6635 19.6964 61.9129 18.4464 63.4527 18.4464Z" fill="#FE920C"/>
<path fill-rule="evenodd" clip-rule="evenodd" d="M74.3216 26.6793C71.7702 26.6793 69.6986 28.7508 69.6986 31.3023C69.6986 33.8543 71.7702 35.9259 74.3216 35.9259C76.8737 35.9259 78.9452 33.8543 78.9452 31.3023C78.9452 28.7508 76.8737 26.6793 74.3216 26.6793ZM74.3216 28.5131C75.8614 28.5131 77.1115 29.7631 77.1115 31.3023C77.1115 32.842 75.8614 34.0921 74.3216 34.0921C72.7819 34.0921 71.5324 32.842 71.5324 31.3023C71.5324 29.7631 72.7819 28.5131 74.3216 28.5131Z" fill="#FE920C"/>
<path fill-rule="evenodd" clip-rule="evenodd" d="M55.0194 36.4964C52.468 36.4964 50.3964 38.568 50.3964 41.1194C50.3964 43.6714 52.468 45.743 55.0194 45.743C57.5714 45.743 59.643 43.6714 59.643 41.1194C59.643 38.568 57.5714 36.4964 55.0194 36.4964ZM55.0194 38.3302C56.5592 38.3302 57.8092 39.5802 57.8092 41.1194C57.8092 42.6592 56.5592 43.9092 55.0194 43.9092C53.4796 43.9092 52.2302 42.6592 52.2302 41.1194C52.2302 39.5802 53.4796 38.3302 55.0194 38.3302Z" fill="#FE920C"/>
<path d="M59.5607 19.6539H48.2414V22.8604H59.5607V19.6539Z" fill="#FE920C"/>
<path d="M70.5232 29.8472H44.5227V33.0536H70.5232V29.8472Z" fill="#FE920C"/>
<path d="M51.7411 39.3641H36.7594V42.5706H51.7411V39.3641Z" fill="#FE920C"/>
<path fill-rule="evenodd" clip-rule="evenodd" d="M32.0276 48.7939C23.6386 42.4374 16.073 34.6162 14.6903 17.5662C18.6012 17.7178 20.8219 15.9929 21.4313 12.4762C26.3361 12.766 29.9371 10.9939 31.9078 5.78046H32.0276C33.9977 10.9939 37.5987 12.766 42.5041 12.4762C43.1129 15.9929 45.3342 17.7178 49.2445 17.5662C47.8618 34.6162 40.416 42.4374 32.0276 48.7939ZM29.2983 27.1857C28.3154 26.4204 27.6827 25.226 27.6827 23.8855C27.6827 21.5786 29.5556 19.7057 31.8626 19.7057C34.1701 19.7057 36.043 21.5786 36.043 23.8855C36.043 25.2951 35.3437 26.5427 34.2734 27.3V33.9384H29.2983V27.1857Z" fill="#FE920C"/>
<path fill-rule="evenodd" clip-rule="evenodd" d="M30.8804 0.975587C30.9984 0.573753 31.37 0.280029 31.8097 0.280029C32.2498 0.280029 32.6219 0.574437 32.7394 0.976818L32.7409 0.97449C33.8446 3.89462 35.3845 5.86648 37.3558 7.0523C39.3348 8.24263 41.7308 8.63735 44.4889 8.47443C44.9547 8.44683 45.367 8.77349 45.4465 9.23327C45.7688 11.094 46.4892 12.4961 47.6748 13.3976C48.8829 14.3163 50.5446 14.7061 52.6531 14.6243C52.9153 14.6142 53.1691 14.7167 53.3506 14.906C53.5321 15.0953 53.6238 15.3532 53.6026 15.6146C53.5361 16.4355 53.458 17.2391 53.3688 18.0256C53.3118 18.5285 52.8573 18.8904 52.3545 18.8334C51.8516 18.7764 51.4897 18.3218 51.5467 17.819C51.5974 17.3722 51.6443 16.9198 51.6875 16.4616C49.5611 16.3949 47.8601 15.8423 46.5648 14.8573C45.2161 13.8317 44.2854 12.3288 43.8034 10.3376C40.9678 10.4015 38.4923 9.87593 36.4106 8.62369C34.5616 7.51154 33.0117 5.82383 31.8108 3.42527C30.6101 5.82383 29.0602 7.51154 27.2112 8.62369C25.1294 9.87593 22.6539 10.4015 19.8185 10.3375C19.3363 12.3288 18.4057 13.8317 17.0569 14.8573C15.7616 15.8423 14.0607 16.3949 11.9342 16.4616C13.7511 35.6497 22.3087 44.7751 31.8832 52.1234C35.0726 49.6747 38.1364 47.0307 40.8705 43.8831C41.2024 43.5011 41.782 43.4604 42.164 43.7922C42.5461 44.1241 42.5868 44.7036 42.2549 45.0857C39.2779 48.5129 35.925 51.3645 32.4371 54.0074C32.1096 54.2556 31.657 54.2556 31.3296 54.0074C21.0165 46.1927 11.7188 36.5757 10.0191 15.6146C9.99793 15.3532 10.0896 15.0953 10.2711 14.906C10.4527 14.7167 10.7065 14.6142 10.9686 14.6243C13.0772 14.7061 14.7389 14.3163 15.947 13.3976C17.1325 12.4961 17.853 11.094 18.1752 9.23327C18.2548 8.77349 18.667 8.44683 19.1328 8.47443C21.891 8.63735 24.2869 8.24263 26.2659 7.0523C28.2371 5.86662 29.7769 3.89503 30.8804 0.975587Z" fill="black"/>
<path fill-rule="evenodd" clip-rule="evenodd" d="M1.83357 72.6256V64.9469C1.83357 64.9469 2.25107 65.7177 4.90885 70.6267H5.64725C8.18461 65.8014 8.59477 65.0208 8.59477 65.0208V72.6256H10.4286V60.9669H8.59477C5.96511 65.5673 6.37405 64.9151 5.54578 66.4377C5.36852 66.7629 5.15091 66.7629 4.96936 66.4377C4.11787 64.9139 4.40394 65.5655 1.83357 60.9669H-0.000221252V72.6256H1.83357Z" fill="black"/>
<path fill-rule="evenodd" clip-rule="evenodd" d="M32.3798 60.9355L31.3546 60.9163V72.6263H32.3701C34.5845 72.6775 36.1479 72.0272 37.1743 70.9369C38.1965 69.8514 38.7052 68.2922 38.7052 66.4039V66.3931C38.6624 64.6163 38.0687 63.2602 36.9863 62.332C35.9496 61.4424 34.4242 60.9343 32.3798 60.9343V60.9355ZM33.1627 62.7726C34.2946 62.8636 35.18 63.165 35.8092 63.7044C36.5264 64.3198 36.8657 65.2401 36.8971 66.4075C36.8953 67.7733 36.5939 68.916 35.858 69.6971C35.2493 70.3438 34.3561 70.7169 33.1627 70.8019V62.7726ZM31.3546 62.7425V61.8384V62.7425Z" fill="black"/>
<path fill-rule="evenodd" clip-rule="evenodd" d="M62.9073 60.8367C59.6947 60.8367 57.0862 63.4445 57.0862 66.6578C57.0862 69.8704 59.6947 72.4789 62.9073 72.4789C66.1199 72.4789 68.7284 69.8704 68.7284 66.6578C68.7284 63.4445 66.1199 60.8367 62.9073 60.8367ZM62.9073 62.3649C65.2767 62.3649 67.2002 64.2885 67.2002 66.6578C67.2002 69.0272 65.2767 70.9507 62.9073 70.9507C60.538 70.9507 58.6144 69.0272 58.6144 66.6578C58.6144 64.2885 60.538 62.3649 62.9073 62.3649Z" fill="black"/>
<path fill-rule="evenodd" clip-rule="evenodd" d="M46.4139 69.0415H47.237C48.767 69.076 49.8421 68.6113 50.5515 67.8577C51.2573 67.1084 51.6199 66.037 51.6199 64.7336C51.6199 64.7263 51.6199 64.7191 51.6193 64.7118C51.5897 63.4761 51.1642 62.531 50.4059 61.8807C49.694 61.2698 48.6504 60.9078 47.2466 60.9078V60.9084L47.2297 60.9078C47.208 60.9078 47.188 60.9097 47.1687 60.9133V60.9078H44.6011V61.7986C44.6011 61.804 44.6011 61.8088 44.6011 61.8143V68.1351C44.6011 68.1399 44.6011 68.1454 44.6011 68.1508V72.5899H46.4139V69.0415ZM46.4139 62.7207H47.2466C48.1174 62.7207 48.7839 62.8778 49.2257 63.2567C49.6185 63.5933 49.7889 64.1027 49.807 64.7408C49.8052 65.5167 49.6499 66.1706 49.2317 66.6147C48.8172 67.0552 48.1633 67.2504 47.2684 67.2287H46.4139V62.7207Z" fill="black"/>
<path fill-rule="evenodd" clip-rule="evenodd" d="M20.1508 67.3633V72.5792H21.9846V67.3633L25.7157 60.9139H23.5775L21.0078 65.3694L18.2583 60.9579H16.0736L20.1508 67.3633Z" fill="black"/>
</svg>
